<mxfile host="app.diagrams.net" modified="2024-01-03T14:52:59.031Z" agent="Mozilla/5.0 (Windows NT 10.0; Win64; x64) AppleWebKit/537.36 (KHTML, like Gecko) Chrome/120.0.0.0 Safari/537.36" version="22.1.16" etag="lJoklDBw_bQ0GIKVYSY5" type="github">
  <diagram name="페이지-1" id="XlN5-ldZQ5OD-Nz85rxq">
    <mxGraphModel>
      <root>
        <mxCell id="0" />
        <mxCell id="1" parent="0" />
      </root>
    </mxGraphModel>
  </diagram>
</mxfile>
